<?xml version="1.0" encoding="utf-8"?>
<!-- Generator: Adobe Illustrator 22.1.0, SVG Export Plug-In . SVG Version: 6.00 Build 0)  -->
<svg version="1.1" id="Layer_1" xmlns="http://www.w3.org/2000/svg" xmlns:xlink="http://www.w3.org/1999/xlink" x="0px" y="0px"
	 viewBox="0 0 150 150" style="enable-background:new 0 0 150 150;" xml:space="preserve">
<title>Cleaning</title>
<g>
	<path d="M116.2,106l17.1-60.2c1-3.7-1.1-7.6-4.8-8.6L70.7,20.8L59.5,59.6l2.9,2.9C66.8,58,74.9,49.9,79.8,45
		c3.1-3.1,8.1-3.1,11.2,0c1.9,1.9,2.7,4.5,2.2,7.1c0.3,0,0.6-0.1,0.9-0.1c4.4,0,7.9,3.5,7.9,7.9c0,1.8-0.6,3.6-1.8,5
		c4.3,0.5,7.4,4.5,6.9,8.8c-0.2,1.5-0.8,3-1.8,4.1c4.3,0.5,7.4,4.5,6.9,8.8c-0.2,1.8-1,3.4-2.3,4.6L94.2,107l13.4,3.8
		C111.3,111.9,115.1,109.7,116.2,106z"/>
	<path d="M109.1,85.8c0-2.7-2.2-4.8-4.8-4.8c-1.3,0-2.5,0.5-3.4,1.4L97.2,86l-3.7,3.7c0,0-0.1,0.1-0.1,0.1c-0.7,0.5-1.6,0.4-2.2-0.2
		c-0.5-0.6-0.4-1.5,0.1-2l11.3-11.3c1.9-1.9,1.9-5,0-6.8c-1.9-1.9-5-1.9-6.8,0L84.5,80.7c-0.1,0.1-0.2,0.1-0.2,0.2
		c-0.5,0.3-1.1,0.3-1.6,0c-0.1-0.1-0.2-0.1-0.3-0.2c-0.6-0.6-0.6-1.6,0-2.2l15.1-15.1c1.9-1.9,1.9-5,0-6.8c-1.9-1.9-5-1.9-6.8,0
		L75.5,71.7c-0.5,0.5-1.3,0.6-1.9,0.2c-0.1-0.1-0.2-0.1-0.3-0.2c-0.6-0.6-0.6-1.6,0-2.2l15.1-15.1l0,0l0.3-0.3c1.9-1.9,1.9-5,0-6.8
		c-1.9-1.9-5-1.9-6.8,0C74.2,54.9,61.3,67.9,61.1,68c-3.8,3.4-8.9,4.8-13.9,3.8c-0.8-0.2-1.4-1-1.2-1.8c0.2-0.8,1-1.4,1.8-1.2
		c0,0,0,0,0.1,0c4,0.8,8.1-0.3,11.2-3c0.1-0.1,0.5-0.5,1.1-1.1l-6.9-6.9c-2.7-2.7-7.1-2.7-9.9,0l-8.9,8.9c-1.8,1.8-2.8,4.2-2.8,6.7
		v4.8c0,7.3-2.7,14.4-7.6,19.8l34,34L78.1,118c1.7-1.2,3.3-2.5,4.7-4l24.9-24.9C108.6,88.3,109.1,87.1,109.1,85.8z"/>
	<rect x="26.9" y="92.7" transform="matrix(0.7071 -0.7071 0.7071 0.7071 -77.0073 60.3788)" width="15" height="60.9"/>
	<path d="M55.5,55.6l1.5,1.5l10.8-37.1l-7.7-2.2c-3.7-1-7.6,1.1-8.6,4.8L41.9,55C45.9,51.7,51.8,51.9,55.5,55.6z"/>
	<path d="M45.6,17.7c0.7,0,1.3-0.5,1.5-1.1c1.1-3.7,4.9-5.8,8.6-4.8c0.8,0.2,1.7-0.2,1.9-1.1c0.2-0.8-0.2-1.7-1.1-1.9
		c-5.3-1.5-10.9,1.6-12.4,6.9c-0.2,0.8,0.2,1.7,1.1,1.9C45.3,17.7,45.4,17.7,45.6,17.7L45.6,17.7z"/>
	<path d="M36.9,15.9c0.8,0.2,1.7-0.2,1.9-1.1c0,0,0,0,0,0C41.2,6.2,50.1,1.3,58.7,3.7c0,0,0,0,0,0c0.8,0.2,1.7-0.2,1.9-1.1
		c0.2-0.8-0.2-1.7-1.1-1.9C49.3-2.2,38.7,3.8,35.8,14C35.6,14.8,36,15.6,36.9,15.9C36.9,15.9,36.9,15.9,36.9,15.9z"/>
	<path d="M120.9,113.7c-1.1,3.7-4.9,5.8-8.6,4.8c-0.8-0.2-1.7,0.2-1.9,1c-0.2,0.8,0.2,1.7,1,1.9c0,0,0,0,0,0
		c5.3,1.5,10.9-1.6,12.4-6.9c0,0,0,0,0,0c0.2-0.8-0.2-1.7-1-1.9C122,112.4,121.2,112.8,120.9,113.7
		C120.9,113.7,120.9,113.7,120.9,113.7L120.9,113.7z"/>
	<path d="M132.7,112.9c-0.8-0.2-1.7,0.2-1.9,1.1c0,0,0,0,0,0c-2.8,9.9-13.1,15.7-23.1,12.9c0,0,0,0,0,0c-0.8-0.2-1.7,0.2-1.9,1
		s0.2,1.7,1,1.9c0,0,0,0,0,0c1.9,0.6,4,0.8,6,0.8c9.7,0,18.2-6.5,20.9-15.8C134,114,133.5,113.1,132.7,112.9
		C132.7,112.9,132.7,112.9,132.7,112.9z"/>
	<path d="M143.6,92.7c-3-1-5.4-3.4-6.5-6.5c-0.3-0.8-1.1-1.2-1.9-1c-0.5,0.2-0.8,0.5-1,1c-1,3-3.4,5.4-6.5,6.5
		c-0.8,0.3-1.2,1.1-1,1.9c0.2,0.5,0.5,0.8,1,1c3,1,5.4,3.4,6.5,6.5c0.3,0.8,1.1,1.2,1.9,1c0.5-0.2,0.8-0.5,1-1c1-3,3.4-5.4,6.5-6.5
		c0.8-0.3,1.2-1.1,1-1.9C144.4,93.2,144,92.8,143.6,92.7L143.6,92.7z"/>
	<ellipse cx="27.3" cy="14.4" rx="3.3" ry="3.3"/>
	<path d="M12.4,35.6c0.3,0.8,1.1,1.2,1.9,1c0.5-0.2,0.8-0.5,1-1c1-2.8,3.2-5.1,6-6c0.8-0.3,1.2-1.1,1-1.9c-0.2-0.5-0.5-0.8-1-1
		c-2.8-1-5.1-3.2-6-6c-0.3-0.8-1.1-1.2-1.9-1c-0.5,0.2-0.8,0.5-1,1c-1,2.8-3.2,5.1-6,6c-0.8,0.3-1.2,1.1-1,1.9c0.2,0.5,0.5,0.8,1,1
		C9.3,30.6,11.5,32.8,12.4,35.6z"/>
</g>
</svg>
