<?xml version="1.0" encoding="utf-8"?>
<!-- Generator: Adobe Illustrator 22.1.0, SVG Export Plug-In . SVG Version: 6.00 Build 0)  -->
<svg version="1.1" id="Layer_1" xmlns="http://www.w3.org/2000/svg" xmlns:xlink="http://www.w3.org/1999/xlink" x="0px" y="0px"
	 viewBox="0 0 100 100" style="enable-background:new 0 0 100 100;" xml:space="preserve">
<title>Fingerprint</title>
<g>
	<path d="M86.6,49.7C90.5,56.2,94,63,97,70.1c-0.1,1.2-0.3,2.3-0.6,3.4c-3.1-8-6.9-15.6-11.4-22.9c-7.3-12-23.2-15.5-35.5-7.7
		s-16.3,23.8-9,35.8c3.6,5.8,6.6,12,8.8,18.4c-0.7-0.2-1.4-0.4-2.1-0.7C45,90.6,42.3,84.9,39,79.6c-7.8-12.8-3.5-30,9.6-38.2
		S78.7,36.8,86.6,49.7L86.6,49.7z M56.8,54.9c-5.5,3.5-7.3,10.6-4.1,16c0,0,0,0,0,0c5.6,8.6,9.6,18.1,12,28.2l1.7-0.1
		C64.1,88.7,60,78.8,54.3,70c-2.8-4.6-1.2-10.6,3.4-13.6c4.7-2.9,10.7-1.6,13.5,2.9l0,0c6.3,10.1,11,21.1,13.9,32.6
		c0.5-0.4,1.1-0.9,1.6-1.4c-3-11.4-7.7-22.3-14-32.3C69.5,53,62.3,51.4,56.8,54.9z M51.4,45.9c-10.6,6.7-14,20.5-7.7,30.8
		c4.2,6.6,7.5,13.9,9.8,21.4c0.7,0.1,1.3,0.3,2,0.4c-2.3-8.1-5.8-15.8-10.3-22.8c-5.8-9.5-2.6-22.2,7.2-28.4s22.3-3.4,28.1,6.1
		c5.5,8.8,9.9,18.2,13.2,28.1c0.4-0.8,0.8-1.6,1.1-2.4c-3.3-9.3-7.5-18.2-12.7-26.6C75.6,42.2,61.9,39.2,51.4,45.9z M59.6,59.4
		c-3,1.9-3.9,5.7-2.2,8.6c0,0,0,0,0,0c6,9.3,10.2,19.7,12.6,30.6c0.6-0.1,1.2-0.2,1.8-0.3C69.4,87.1,65,76.6,58.9,67
		c-1.3-2.1-0.6-4.8,1.5-6.2c2.1-1.3,4.9-0.7,6.1,1.3l0,0C73,72.3,77.7,83.4,80.4,95.1l1.5-0.9c-2.8-11.7-7.4-22.8-13.8-32.9
		C66.3,58.4,62.5,57.6,59.6,59.4z M62.3,63.9c-0.4,0.3-0.6,0.8-0.3,1.2c6.3,9.8,10.8,20.7,13.3,32.1c0.6-0.2,1.2-0.4,1.7-0.6
		C74.4,85,69.9,74.1,63.5,64.1C63.3,63.7,62.7,63.6,62.3,63.9z M26.9,7.3c-2.6,0.8-5.1,1.9-7.5,3.2c-3.9,3.2-7.5,6.8-10.7,10.7
		c-1.4,2.4-2.5,4.9-3.3,7.5C11,20.2,18.4,12.9,26.9,7.3z M54.1,50.4c-8.1,5.1-10.7,15.6-5.9,23.4c0,0,0,0,0,0
		C51,78.4,56.8,88.1,59.3,99c0.6,0.1,1.2,0.1,1.9,0.1c-2.4-11.4-8.5-21.5-11.4-26.3c-4.3-7-1.9-16.4,5.3-21
		c7.2-4.5,16.5-2.5,20.8,4.5c6,9.6,10.7,20.1,13.9,31.1c0.5-0.6,0.9-1.2,1.4-1.8c-3.2-10.7-7.8-20.9-13.7-30.3
		C72.6,47.6,62.2,45.3,54.1,50.4C54.1,50.4,54.1,50.4,54.1,50.4z M33.1,15.8C39,12.1,45.5,9.4,52.3,8c-1.2-0.4-2.4-0.7-3.5-1
		C27.7,12.8,11,29.6,5.1,50.7c0.3,1.2,0.6,2.3,0.9,3.5C9.5,38.4,19.3,24.5,33.1,15.8z M30.3,11.3c3.4-2.2,7-4,10.8-5.5
		c-1.4-0.1-2.8-0.1-4.2-0.1c-2.6,1.2-5.1,2.6-7.5,4.1c-11.1,7-20,17.1-25.5,29c0,1.4,0,2.8,0.1,4.2C9.2,30,18.5,18.9,30.3,11.3
		L30.3,11.3z M35.9,20.4c8-5.1,17.1-8,26.4-8.4c-1.1-0.6-2.2-1.1-3.2-1.5c-26.4,2.7-47.7,24-50.5,50.5c0.5,1.1,1,2.2,1.5,3.2
		C11,46.4,20.6,30,35.9,20.4z M45.9,36.9c-15.7,9.9-20.8,30.3-11.5,45.6c0,0,0,0,0,0c2.2,3.5,4.2,7.2,5.9,11
		c0.8,0.4,1.6,0.8,2.4,1.1c-1.9-4.5-4.2-8.9-6.7-13.1c-9-14.4-4.4-33.8,10.3-43.3s33.9-5.6,43,8.7c0.2,0.2,0.3,0.5,0.4,0.7
		c2.8,4.5,5.3,9.2,7.5,14c-0.1-1.9-0.4-3.7-0.7-5.6c-1.8-3.4-3.6-6.6-5.3-9.4C81.9,31.4,61.6,27,45.9,36.9
		C45.9,36.8,45.9,36.9,45.9,36.9z M43.2,32.4C25,43.9,19,67.6,29.8,85.4c0.5,0.9,1.1,1.9,1.8,3c1.1,0.8,2.1,1.5,3.2,2.1
		c-1.2-2.2-2.4-4.3-3.5-6.1c-10.4-17-4.7-39.6,12.7-50.6C59.3,24.2,79,26.8,90.6,40c-1.1-2-2.3-4-3.6-5.9
		C74.5,24.4,57,23.7,43.2,32.4L43.2,32.4z M77.6,23c-22.7-7.4-47.8,5.2-56,28.2c-3.3,9.2-3.5,19.2-0.5,28.3c0.4,0.4,0.8,0.8,1.2,1.2
		c0.6,0.6,1.2,1.2,1.9,1.9c-9.1-21,0.8-46,22.1-55.8c11-5.1,23.5-5.3,34.4-0.6c-0.6-0.6-1.2-1.2-1.8-1.8C78.4,23.8,78,23.4,77.6,23z
		 M38.6,24.8c9.9-6.2,21.7-8.7,33-6.9c-1-0.8-2-1.5-3-2.2C41.6,13.5,17.2,33.6,14,60.6c-0.4,3.3-0.4,6.5-0.2,9.8c0.7,1,1.4,2,2.2,3
		C13.1,54.5,22,35.3,38.6,24.8L38.6,24.8z"/>
</g>
</svg>
