<?xml version="1.0" encoding="utf-8"?>
<!-- Generator: Adobe Illustrator 22.1.0, SVG Export Plug-In . SVG Version: 6.00 Build 0)  -->
<svg version="1.1" id="Layer_1" xmlns="http://www.w3.org/2000/svg" xmlns:xlink="http://www.w3.org/1999/xlink" x="0px" y="0px"
	 viewBox="0 0 100 100" style="enable-background:new 0 0 100 100;" xml:space="preserve">
<path d="M50,98C23.5,98,2,76.5,2,50S23.5,2,50,2s48,21.5,48,48S76.5,98,50,98z M50,6C25.7,6,6,25.7,6,50c0,24.3,19.7,44,44,44
	c24.3,0,44-19.7,44-44C94,25.7,74.3,6,50,6z"/>
<path d="M50,86c-18.8,0-36-16.2-36-34c0-1.1,0.9-2,2-2h68c1.1,0,2,0.9,2,2C86,69.8,68.8,86,50,86z M18.1,54C19.3,67.6,32.5,82,50,82
	s30.7-14.4,31.9-28C81.9,54,18.1,54,18.1,54z"/>
<path d="M40,34c-1.1,0-2-0.9-2-2c0-3.3-2.7-6-6-6s-6,2.7-6,6c0,1.1-0.9,2-2,2s-2-0.9-2-2c0-5.5,4.5-10,10-10s10,4.5,10,10
	C42,33.1,41.1,34,40,34z"/>
<path d="M76,34c-1.1,0-2-0.9-2-2c0-3.3-2.7-6-6-6s-6,2.7-6,6c0,1.1-0.9,2-2,2s-2-0.9-2-2c0-5.5,4.5-10,10-10s10,4.5,10,10
	C78,33.1,77.1,34,76,34z"/>
</svg>
