<?xml version="1.0" encoding="utf-8"?>
<!-- Generator: Adobe Illustrator 22.1.0, SVG Export Plug-In . SVG Version: 6.00 Build 0)  -->
<svg version="1.1" id="Layer_1" xmlns="http://www.w3.org/2000/svg" xmlns:xlink="http://www.w3.org/1999/xlink" x="0px" y="0px"
	 viewBox="0 0 150 150" style="enable-background:new 0 0 150 150;" xml:space="preserve">
<g>
	<g>
		<path d="M133.6,126.5v-14.4H16.4v14.4c-1.6,0-2.9,1.1-2.9,2.9v1.8c0,1.6,1.3,2.9,2.9,2.9h117.2c1.6,0,2.9-1.3,2.9-2.9v-1.8
			C136.5,127.6,135.2,126.5,133.6,126.5z"/>
		<path d="M118.1,16H31.7C14.2,16,0,30.4,0,47.9v7.5h34.8V40.5h13.1l0.2,17.3l-21.9,4.7l-9.7,47h117.2l-9.7-47l-21.9-4.7V40.5h13.3
			v14.8H150v-7.5C150,30.4,135.6,16,118.1,16z M57.2,40.5h35.7v5.1c-12,0-23.7,0-35.7,0V40.5z M60.9,93.5c-2.4,0-4.4-1.3-4.4-2.9
			s2-2.9,4.4-2.9s4.4,1.3,4.4,2.9S63.4,93.5,60.9,93.5z M60.9,80.9c-2.4,0-4.4-1.3-4.4-2.9c0-1.6,2-2.9,4.4-2.9s4.4,1.3,4.4,2.9
			C65.4,79.5,63.4,80.9,60.9,80.9z M60.9,68c-2.4,0-4.4-1.3-4.4-2.9c0-1.6,2-2.9,4.4-2.9s4.4,1.3,4.4,2.9C65.4,66.7,63.4,68,60.9,68
			z M75.3,93.5c-2.4,0-4.4-1.3-4.4-2.9s2-2.9,4.4-2.9c2.4,0,4.2,1.3,4.2,2.9S77.8,93.5,75.3,93.5z M75.3,80.9
			c-2.4,0-4.4-1.3-4.4-2.9c0-1.6,2-2.9,4.4-2.9c2.4,0,4.2,1.3,4.2,2.9C79.5,79.5,77.8,80.9,75.3,80.9z M75.3,68
			c-2.4,0-4.4-1.3-4.4-2.9c0-1.6,2-2.9,4.4-2.9c2.4,0,4.2,1.3,4.2,2.9C79.5,66.7,77.8,68,75.3,68z M89.1,93.5
			c-2.4,0-4.4-1.3-4.4-2.9s2-2.9,4.4-2.9c2.4,0,4.4,1.3,4.4,2.9S91.5,93.5,89.1,93.5z M89.1,80.9c-2.4,0-4.4-1.3-4.4-2.9
			c0-1.6,2-2.9,4.4-2.9c2.4,0,4.4,1.3,4.4,2.9C93.5,79.5,91.5,80.9,89.1,80.9z M89.1,68c-2.4,0-4.4-1.3-4.4-2.9c0-1.6,2-2.9,4.4-2.9
			c2.4,0,4.4,1.3,4.4,2.9C93.5,66.7,91.5,68,89.1,68z"/>
	</g>
</g>
</svg>
