<?xml version="1.0" encoding="utf-8"?>
<!-- Generator: Adobe Illustrator 22.1.0, SVG Export Plug-In . SVG Version: 6.00 Build 0)  -->
<svg version="1.1" id="Layer_1" xmlns="http://www.w3.org/2000/svg" xmlns:xlink="http://www.w3.org/1999/xlink" x="0px" y="0px"
	 viewBox="0 0 100 100" style="enable-background:new 0 0 100 100;" xml:space="preserve">
<g>
	<path d="M30,60.8h-1.6c-2.3,0-4.2-1.9-4.2-4.2V31.4c0-2.3,1.9-4.2,4.2-4.2H30c2.3,0,4.2,1.9,4.2,4.2v25.2
		C34.2,58.9,32.3,60.8,30,60.8z M28.5,30.9c-0.3,0-0.6,0.3-0.6,0.6v25.2c0,0.3,0.3,0.6,0.6,0.6H30c0.3,0,0.6-0.3,0.6-0.6V31.4
		c0-0.3-0.3-0.6-0.6-0.6H28.5z"/>
</g>
<g>
	<path d="M68.9,60.8H44.5c-3.6,0-6.5-2.9-6.5-6.5V33.1c0-2.9,1.8-5.3,4.5-6.2c3.9-1.2,6.5-4.7,6.5-8.8v-3.1c0-3.6,2.9-6.5,6.5-6.5
		s6.5,2.9,6.5,6.5v12.4h11.3c2,0,3.8,0.9,5.1,2.4c1.2,1.5,1.7,3.5,1.3,5.4l-4.3,20.4C74.7,58.6,72,60.8,68.9,60.8z M55.5,12
		c-1.6,0-2.9,1.3-2.9,2.9v3.1c0,5.6-3.6,10.5-9,12.2c-1.2,0.4-2,1.5-2,2.8v21.2c0,1.6,1.3,2.9,2.9,2.9h24.5c1.4,0,2.6-1,2.9-2.3
		l4.3-20.4c0.2-0.9,0-1.8-0.6-2.5c-0.6-0.7-1.4-1.1-2.3-1.1H60.2c-1,0-1.8-0.8-1.8-1.8V14.9C58.4,13.3,57.1,12,55.5,12z"/>
</g>
<g>
	<path d="M86.6,68.6H41c-1,0-1.8-0.8-1.8-1.8S40.1,65,41,65h45.6c1,0,1.8,0.8,1.8,1.8S87.6,68.6,86.6,68.6z"/>
</g>
<g>
	<path d="M33.2,68.6h-7.9c-1,0-1.8-0.8-1.8-1.8s0.8-1.8,1.8-1.8h7.9c1,0,1.8,0.8,1.8,1.8S34.2,68.6,33.2,68.6z"/>
</g>
<g>
	<path d="M20.6,68.6h-7.9c-1,0-1.8-0.8-1.8-1.8s0.8-1.8,1.8-1.8h7.9c1,0,1.8,0.8,1.8,1.8S21.6,68.6,20.6,68.6z"/>
</g>
<g>
	<path d="M20.6,100.1c-0.2,0-0.4,0-0.6-0.1c-0.7-0.3-1.2-0.9-1.2-1.7V76.5h-7.7c-6.2,0-11.2-5-11.2-11.2V11.8
		c0-6.2,5-11.2,11.2-11.2h77.1c6.2,0,11.2,5,11.2,11.2v53.5c0,6.2-5,11.2-11.2,11.2H40.3L22,99.4C21.6,99.8,21.1,100.1,20.6,100.1z
		 M11.1,4.1c-4.2,0-7.6,3.4-7.6,7.6v53.5c0,4.2,3.4,7.6,7.6,7.6h9.4c1,0,1.8,0.8,1.8,1.8v18.5l15.7-19.6c0.3-0.4,0.9-0.7,1.4-0.7
		h48.8c4.2,0,7.6-3.4,7.6-7.6V11.8c0-4.2-3.4-7.6-7.6-7.6H11.1z"/>
</g>
</svg>
