<?xml version="1.0" encoding="utf-8"?>
<!-- Generator: Adobe Illustrator 22.1.0, SVG Export Plug-In . SVG Version: 6.00 Build 0)  -->
<svg version="1.1" xmlns="http://www.w3.org/2000/svg" xmlns:xlink="http://www.w3.org/1999/xlink" x="0px" y="0px"
	 viewBox="0 0 150 150" style="enable-background:new 0 0 150 150;" xml:space="preserve">
<g id="Layer_2">
</g>
<g id="Layer_1">
	<g>
		<circle cx="48.9" cy="36" r="14.5"/>
		<path d="M48.9,17c1.9,0,3.5-1.6,3.5-3.5V7.6c0-1.9-1.6-3.5-3.5-3.5s-3.5,1.6-3.5,3.5v5.8C45.4,15.4,47,17,48.9,17z"/>
		<path d="M30.4,22.5c0.6,0.6,1.6,1.1,2.5,1.1s1.7-0.3,2.5-1.1c1.4-1.4,1.4-3.6,0-4.9l-4.1-4.1c-1.4-1.4-3.6-1.4-4.9,0
			c-1.4,1.4-1.4,3.6,0,4.9L30.4,22.5z"/>
		<path d="M20.5,39.5h5.8c1.9,0,3.5-1.6,3.5-3.5s-1.6-3.5-3.5-3.5h-5.8c-1.9,0-3.5,1.6-3.5,3.5S18.6,39.5,20.5,39.5z"/>
		<path d="M35.5,49.6c-1.4-1.4-3.6-1.4-4.9,0l-4.1,4.1c-1.4,1.4-1.4,3.6,0,4.9c0.6,0.6,1.6,1.1,2.5,1.1c0.9,0,1.7-0.3,2.5-1.1
			l3.9-4.1C36.8,53.1,36.8,50.9,35.5,49.6z"/>
		<path d="M52.4,64.4v-5.8c0-1.9-1.6-3.5-3.5-3.5s-3.5,1.6-3.5,3.5v5.8c0,1.9,1.6,3.5,3.5,3.5S52.4,66.3,52.4,64.4z"/>
		<path d="M66.6,58.6c0.6,0.6,1.6,1.1,2.5,1.1c0.9,0,1.7-0.3,2.5-1.1c1.4-1.4,1.4-3.6,0-4.9l-4.1-4.1c-1.4-1.4-3.6-1.4-4.9,0
			c-1.4,1.4-1.4,3.6,0,4.9L66.6,58.6z"/>
		<path d="M68,36c0,1.9,1.6,3.5,3.5,3.5h5.8c1.9,0,3.5-1.6,3.5-3.5s-1.6-3.5-3.5-3.5h-5.8C69.6,32.6,68,34.1,68,36z"/>
		<path d="M65,23.6c0.9,0,1.7-0.3,2.5-1.1l4.1-4.1c1.4-1.4,1.4-3.6,0-4.9c-1.4-1.4-3.6-1.4-4.9,0l-4.1,4.1c-1.4,1.4-1.4,3.6,0,4.9
			C63.1,23.3,64,23.6,65,23.6z"/>
		<path d="M135,93.6c-12.9,12.6-35,21-60.1,21s-47.2-8.4-60.1-21c-0.5-0.5-1.1,0-0.9,0.5c5.4,20.8,30.8,36.6,61,36.6
			s55.7-15.8,61-36.6C136.1,93.6,135.5,93.3,135,93.6z"/>
		<path d="M66.4,99.4c-1.4-1.3-3-2.8-4.7-4.3c-2.7-2.4-5.4-4.6-7.1-5.7c-2.1-1.3-6.2-3.8-24.6,9.3c3.5,1.9,7.3,3.6,11.2,5
			c3.6-2.4,7.1-4.1,8.8-4.7c2.5,2.1,7.3,6.3,10.7,9.5c4.6,0.6,9.3,0.9,14.2,0.9c10.7,0,20.8-1.6,30-4.4c-1.7-2.7-5.2-7.3-9-8
			c-4.9-0.9-14.4,0.8-24.8,3.5C69.4,101.2,67.7,100.7,66.4,99.4z"/>
		<path d="M107.9,101.5c1.1,0.6,2.2,1.1,3.3,1.4c4.4-1.7,8.4-3.8,12-6.2c2.1-4.6,0.5-10.3-3.9-13.1c-4.9-3.2-11.4-1.7-14.5,3.3
			C101.4,91.9,102.8,98.3,107.9,101.5z"/>
		<path d="M6.9,72.6H1.6c-0.9,0-1.6,0.8-1.6,1.7l3.3,69.9c0,0.8,0.8,1.6,1.6,1.6h10.4c0.9,0,1.7-0.8,1.6-1.7l-8.4-70
			C8.4,73.3,7.7,72.6,6.9,72.6z"/>
		<path d="M148.3,72.6h-5.2c-0.8,0-1.6,0.6-1.6,1.4l-8.4,69.9c-0.2,0.9,0.6,1.7,1.6,1.7h10.4c0.8,0,1.6-0.6,1.6-1.6l3.3-69.9
			C149.8,73.4,149.2,72.6,148.3,72.6z"/>
	</g>
</g>
</svg>
